<?xml version="1.0"?>
<svg version="1.1" xmlns="http://www.w3.org/2000/svg" width="220px" height="40px" style=""><path fill="#" d="M12.94,17.778l-3.366,0l-0.836,0l-0.55,0l0,15.422l0.55,0l0.836,0l3.366,0q3.212,0,5.5-2.244q2.354-2.31,2.354-5.61q0-3.124-2.354-5.368q-2.31-2.2-5.5-2.2z M12.94,31.814l-3.366,0l0-12.606l3.366,0q2.75,0,4.62,1.804q1.848,1.804,1.848,4.334q0,2.75-1.848,4.598q-1.87,1.87-4.62,1.87z M35.72848,17.8l-1.364,0l0,1.628q0,2.024-1.408,3.388q-1.386,1.32-3.3,1.32q-2.046,0-3.366-1.32t-1.32-3.388l0-1.628l-1.364,0l0,1.628q0,2.464,1.496,4.18q1.474,1.738,3.74,1.892l0,7.722l1.386,0l0-7.722q2.31-0.176,3.894-1.892q1.606-1.716,1.606-4.18l0-1.628z M38.60696,33.2l1.364,0l0-9.328q0-1.848,1.408-3.3q1.408-1.408,3.256-1.408t3.3,1.408q1.408,1.452,1.408,3.3l0,9.328l1.364,0l0-9.328q0-2.508-1.782-4.29t-4.29-1.782q-2.464,0-4.246,1.782t-1.782,4.29l0,9.328z M59.81144,17.712q-2.464,0-4.136,1.782q-1.65,1.76-1.65,4.29l0,9.416l1.386,0l0-6.908l8.844,0l0,6.908l1.386,0l0-9.416q0-2.53-1.65-4.29q-1.716-1.782-4.18-1.782z M64.25544,24.928l-8.844,0l0-1.144q0-1.892,1.276-3.278q1.298-1.408,3.124-1.408t3.168,1.408q1.276,1.386,1.276,3.278l0,1.144z M69.02592,33.156l1.364,0l0-9.306q0-1.848,1.408-3.256t3.256-1.408q1.804,0,3.256,1.408q1.386,1.386,1.386,3.256l0,9.306l1.408,0l0-9.306q0-1.892,1.408-3.256q1.408-1.408,3.234-1.408q1.848,0,3.256,1.408t1.408,3.256l0,9.306l1.364,0l0-9.306q0-2.508-1.76-4.268t-4.268-1.76q-1.65,0-3.102,0.902q-1.474,0.924-2.112,2.354q-0.858-1.474-2.31-2.354q-1.518-0.902-3.168-0.902q-2.486,0-4.246,1.76q-1.782,1.782-1.782,4.268l0,9.306z M95.2684,33.222l1.386,0l0-15.466l-1.386,0l0,15.466z M111.52288,33.2l0-1.386l-3.916,0q-2.728,0-4.576-1.848t-1.848-4.576q0-2.508,1.848-4.312t4.576-1.804l3.916,0l0-1.43l-3.916,0q-3.322,0-5.566,2.2q-2.244,2.178-2.244,5.346q0,3.366,2.244,5.566q2.2,2.244,5.566,2.244l3.916,0z M121.92184,33.2l1.364,0l0-9.328q0-1.848,1.408-3.3q1.408-1.408,3.256-1.408t3.3,1.408q1.408,1.452,1.408,3.3l0,9.328l1.364,0l0-9.328q0-2.508-1.782-4.29t-4.29-1.782q-2.464,0-4.246,1.782t-1.782,4.29l0,9.328z M143.25832,17.712q-2.464,0-4.136,1.782q-1.65,1.76-1.65,4.29l0,9.416l1.386,0l0-6.908l8.844,0l0,6.908l1.386,0l0-9.416q0-2.53-1.65-4.29q-1.716-1.782-4.18-1.782z M147.70232,24.928l-8.844,0l0-1.144q0-1.892,1.276-3.278q1.298-1.408,3.124-1.408t3.168,1.408q1.276,1.386,1.276,3.278l0,1.144z M164.0888,17.712l-1.672,0l-4.686,11.638l-4.422-11.638l-1.386,0l5.808,15.488z M177.08728,25.346q0.858-0.418,1.408-1.386q0.55-0.924,0.55-1.98q0-1.892-1.276-3.058q-1.276-1.144-3.212-1.144l-6.182,0l-0.264,0l-1.122,0l0,15.422l1.122,0l0.264,0l6.182,0q1.936,0,3.212-1.144q1.276-1.166,1.276-3.058q0-1.034-0.539-2.013t-1.419-1.639z M168.37528,18.9l6.182,0q1.32,0,2.178,0.902q0.924,0.968,0.924,2.178q0,0.99-0.726,1.826q-0.682,0.748-1.804,0.99l-0.572,0l-6.182,0l0-5.896z M174.55728,32.078l-6.182,0l0-5.896l6.182,0l0.572,0q1.122,0.242,1.804,0.99q0.726,0.836,0.726,1.826q0,1.188-0.924,2.156q-0.88,0.924-2.178,0.924z M188.12776,17.712q-2.464,0-4.136,1.782q-1.65,1.76-1.65,4.29l0,9.416l1.386,0l0-6.908l8.844,0l0,6.908l1.386,0l0-9.416q0-2.53-1.65-4.29q-1.716-1.782-4.18-1.782z M192.57176,24.928l-8.844,0l0-1.144q0-1.892,1.276-3.278q1.298-1.408,3.124-1.408t3.168,1.408q1.276,1.386,1.276,3.278l0,1.144z M204.00824,25.478l1.65,0q1.672,0,2.772-1.1t1.1-2.772q0-1.474-1.1-2.64q-1.166-1.21-2.772-1.21l-6.886,0l-1.364,0l0,15.444l1.364,0l0-7.722l3.586,0l4.686,7.722l1.65,0z M198.77224,24.114l0-4.972l6.886,0q1.012,0,1.782,0.726q0.726,0.726,0.726,1.738q0,1.056-0.726,1.782q-0.77,0.726-1.782,0.726l-6.886,0z"/><path fill="#" d=""/></svg>
